<svg width="920" height="520" viewBox="0 0 920 520" fill="none" xmlns="http://www.w3.org/2000/svg">
  <defs>
    <linearGradient id="bg" x1="0" y1="0" x2="920" y2="520" gradientUnits="userSpaceOnUse">
      <stop stop-color="#F7FBFF"/>
      <stop offset="0.48" stop-color="#EEF8FF"/>
      <stop offset="1" stop-color="#FFF3F0"/>
    </linearGradient>
    <linearGradient id="blueTeal" x1="190" y1="130" x2="330" y2="340" gradientUnits="userSpaceOnUse">
      <stop stop-color="#2E8BFF"/>
      <stop offset="1" stop-color="#10B9A7"/>
    </linearGradient>
    <linearGradient id="violetBlue" x1="590" y1="130" x2="730" y2="340" gradientUnits="userSpaceOnUse">
      <stop stop-color="#5B5FF5"/>
      <stop offset="1" stop-color="#19B9D6"/>
    </linearGradient>
    <filter id="softShadow" x="-20%" y="-20%" width="140%" height="150%" color-interpolation-filters="sRGB">
      <feDropShadow dx="0" dy="22" stdDeviation="18" flood-color="#1D4ED8" flood-opacity="0.18"/>
      <feDropShadow dx="0" dy="8" stdDeviation="8" flood-color="#111827" flood-opacity="0.08"/>
    </filter>
    <filter id="innerGlow" x="-20%" y="-20%" width="140%" height="140%" color-interpolation-filters="sRGB">
      <feGaussianBlur stdDeviation="8" result="blur"/>
      <feComposite in="SourceGraphic" in2="blur" operator="over"/>
    </filter>
  </defs>

  <rect width="920" height="520" rx="38" fill="url(#bg)"/>
  <circle cx="138" cy="95" r="92" fill="#DBEAFE" opacity="0.58"/>
  <circle cx="787" cy="414" r="110" fill="#FFE4DE" opacity="0.66"/>
  <circle cx="466" cy="285" r="180" fill="#E6FFFA" opacity="0.35"/>

  <text x="460" y="70" text-anchor="middle" font-family="Inter, Arial, sans-serif" font-size="30" font-weight="800" fill="#172033">Kart Logo Preview</text>
  <text x="460" y="103" text-anchor="middle" font-family="Inter, Arial, sans-serif" font-size="15" font-weight="500" fill="#667284">Two cute shopping-bag robot face options for the chat avatar</text>

  <g transform="translate(95 135)">
    <rect x="0" y="0" width="330" height="310" rx="34" fill="white" fill-opacity="0.64" stroke="white" stroke-width="1.5"/>
    <rect x="72" y="54" width="186" height="188" rx="38" fill="url(#blueTeal)" filter="url(#softShadow)"/>
    <path d="M125 78C125 45 205 45 205 78" stroke="#1E6BD8" stroke-width="16" stroke-linecap="round"/>
    <path d="M125 78C125 45 205 45 205 78" stroke="white" stroke-opacity="0.8" stroke-width="8" stroke-linecap="round"/>
    <path d="M90 85C116 64 217 64 243 85" stroke="white" stroke-width="8" stroke-linecap="round" opacity="0.32"/>
    <rect x="108" y="105" width="114" height="87" rx="32" fill="#0B2545" fill-opacity="0.9"/>
    <path d="M137 141C140 130 153 130 156 141" stroke="#7DF9FF" stroke-width="9" stroke-linecap="round"/>
    <path d="M174 141C177 130 190 130 193 141" stroke="#7DF9FF" stroke-width="9" stroke-linecap="round"/>
    <path d="M150 164C160 174 174 174 184 164" stroke="#7DF9FF" stroke-width="7" stroke-linecap="round"/>
    <circle cx="105" cy="123" r="11" fill="#FF7A67"/>
    <circle cx="225" cy="123" r="11" fill="#FFB84D"/>
    <text x="165" y="287" text-anchor="middle" font-family="Inter, Arial, sans-serif" font-size="18" font-weight="800" fill="#172033">Rounded Rectangle Bag</text>
  </g>

  <g transform="translate(495 135)">
    <rect x="0" y="0" width="330" height="310" rx="34" fill="white" fill-opacity="0.64" stroke="white" stroke-width="1.5"/>
    <circle cx="165" cy="150" r="96" fill="url(#violetBlue)" filter="url(#softShadow)"/>
    <path d="M121 118C121 75 209 75 209 118" stroke="#2C49C7" stroke-width="16" stroke-linecap="round"/>
    <path d="M121 118C121 75 209 75 209 118" stroke="white" stroke-opacity="0.78" stroke-width="8" stroke-linecap="round"/>
    <path d="M96 102C128 80 202 80 234 102" stroke="white" stroke-width="9" stroke-linecap="round" opacity="0.3"/>
    <rect x="107" y="122" width="116" height="82" rx="36" fill="#101F40" fill-opacity="0.92"/>
    <path d="M136 155C139 144 152 144 155 155" stroke="#8FF7FF" stroke-width="9" stroke-linecap="round"/>
    <path d="M175 155C178 144 191 144 194 155" stroke="#8FF7FF" stroke-width="9" stroke-linecap="round"/>
    <path d="M150 178C159 187 172 187 181 178" stroke="#8FF7FF" stroke-width="7" stroke-linecap="round"/>
    <circle cx="110" cy="190" r="12" fill="#FF7A67"/>
    <circle cx="220" cy="190" r="12" fill="#FFD166"/>
    <text x="165" y="287" text-anchor="middle" font-family="Inter, Arial, sans-serif" font-size="18" font-weight="800" fill="#172033">Circular Bag Bot</text>
  </g>
</svg>
