<svg width="1400" height="980" viewBox="0 0 1400 980" fill="none" xmlns="http://www.w3.org/2000/svg">
  <defs>
    <linearGradient id="bg" x1="0" y1="0" x2="1400" y2="980" gradientUnits="userSpaceOnUse">
      <stop stop-color="#07101f"/>
      <stop offset="1" stop-color="#101b33"/>
    </linearGradient>
    <linearGradient id="blue" x1="0" y1="0" x2="1" y2="1">
      <stop stop-color="#2563eb"/>
      <stop offset="1" stop-color="#06b6d4"/>
    </linearGradient>
    <filter id="shadow" x="-20%" y="-20%" width="140%" height="140%">
      <feDropShadow dx="0" dy="16" stdDeviation="15" flood-color="#000000" flood-opacity="0.28"/>
    </filter>
    <marker id="arrow" markerWidth="12" markerHeight="12" refX="10" refY="6" orient="auto" markerUnits="strokeWidth">
      <path d="M2 2 L10 6 L2 10 Z" fill="#60a5fa"/>
    </marker>
  </defs>

  <rect width="1400" height="980" rx="34" fill="url(#bg)"/>
  <circle cx="180" cy="150" r="145" fill="#0ea5e9" opacity="0.10"/>
  <circle cx="1180" cy="780" r="210" fill="#2563eb" opacity="0.09"/>

  <text x="70" y="82" fill="#f8fafc" font-family="Inter, Arial, sans-serif" font-size="44" font-weight="800">WiseBuy AI System Architecture</text>
  <text x="70" y="121" fill="#94a3b8" font-family="Inter, Arial, sans-serif" font-size="18">Layered Flask monolith with vanilla JS frontend, SQLite persistence, and external AI/marketplace APIs</text>

  <g font-family="Inter, Arial, sans-serif" filter="url(#shadow)">
    <rect x="70" y="210" width="280" height="575" rx="18" fill="#0b1628" stroke="#1e3a8a"/>
    <text x="210" y="250" text-anchor="middle" fill="#93c5fd" font-size="17" font-weight="800">Browser Client</text>
    <rect x="105" y="295" width="210" height="92" rx="14" fill="#102650" stroke="#2563eb"/>
    <text x="210" y="329" text-anchor="middle" fill="#f8fafc" font-size="17" font-weight="800">index.html</text>
    <text x="210" y="356" text-anchor="middle" fill="#94a3b8" font-size="13">Login page + chatbot UI</text>
    <rect x="105" y="440" width="210" height="92" rx="14" fill="#102650" stroke="#2563eb"/>
    <text x="210" y="474" text-anchor="middle" fill="#f8fafc" font-size="17" font-weight="800">Vanilla JS</text>
    <text x="210" y="501" text-anchor="middle" fill="#94a3b8" font-size="13">Fetch APIs, render cards</text>
    <rect x="105" y="585" width="210" height="92" rx="14" fill="#102650" stroke="#2563eb"/>
    <text x="210" y="619" text-anchor="middle" fill="#f8fafc" font-size="17" font-weight="800">Session Cookie</text>
    <text x="210" y="646" text-anchor="middle" fill="#94a3b8" font-size="13">Authenticated or guest</text>

    <rect x="430" y="165" width="430" height="675" rx="18" fill="#091426" stroke="#334155"/>
    <text x="645" y="205" text-anchor="middle" fill="#93c5fd" font-size="17" font-weight="800">Flask Backend: app.py</text>
    <rect x="475" y="245" width="340" height="72" rx="14" fill="url(#blue)" stroke="#67e8f9"/>
    <text x="645" y="276" text-anchor="middle" fill="#ffffff" font-size="17" font-weight="800">Routes / Controllers</text>
    <text x="645" y="299" text-anchor="middle" fill="#dbeafe" font-size="13">/auth, /chat, /image-search, /api/chats</text>
    <rect x="475" y="360" width="150" height="88" rx="14" fill="#0f213d" stroke="#1e3a8a"/>
    <text x="550" y="393" text-anchor="middle" fill="#f8fafc" font-size="16" font-weight="800">Auth</text>
    <text x="550" y="418" text-anchor="middle" fill="#94a3b8" font-size="13">PBKDF2, sessions</text>
    <rect x="665" y="360" width="150" height="88" rx="14" fill="#0f213d" stroke="#1e3a8a"/>
    <text x="740" y="393" text-anchor="middle" fill="#f8fafc" font-size="16" font-weight="800">History</text>
    <text x="740" y="418" text-anchor="middle" fill="#94a3b8" font-size="13">Chats + results</text>
    <rect x="475" y="500" width="150" height="88" rx="14" fill="#0f213d" stroke="#1e3a8a"/>
    <text x="550" y="533" text-anchor="middle" fill="#f8fafc" font-size="16" font-weight="800">Chat Logic</text>
    <text x="550" y="558" text-anchor="middle" fill="#94a3b8" font-size="13">Prompt + search tags</text>
    <rect x="665" y="500" width="150" height="88" rx="14" fill="#0f213d" stroke="#1e3a8a"/>
    <text x="740" y="533" text-anchor="middle" fill="#f8fafc" font-size="16" font-weight="800">Image Logic</text>
    <text x="740" y="558" text-anchor="middle" fill="#94a3b8" font-size="13">Vision + query variants</text>
    <rect x="520" y="645" width="250" height="92" rx="14" fill="#102650" stroke="#2563eb"/>
    <text x="645" y="680" text-anchor="middle" fill="#f8fafc" font-size="17" font-weight="800">Search + Ranking</text>
    <text x="645" y="707" text-anchor="middle" fill="#93c5fd" font-size="13">Store filtering, dedupe, scoring</text>

    <rect x="935" y="210" width="190" height="165" rx="18" fill="#0b1628" stroke="#1e3a8a"/>
    <text x="1030" y="250" text-anchor="middle" fill="#93c5fd" font-size="17" font-weight="800">SQLite</text>
    <text x="1030" y="286" text-anchor="middle" fill="#f8fafc" font-size="15" font-weight="700">wisebuy.db</text>
    <text x="1030" y="318" text-anchor="middle" fill="#94a3b8" font-size="13">users</text>
    <text x="1030" y="340" text-anchor="middle" fill="#94a3b8" font-size="13">chats, messages</text>
    <text x="1030" y="362" text-anchor="middle" fill="#94a3b8" font-size="13">result_sets, reset tokens</text>

    <rect x="935" y="455" width="365" height="350" rx="18" fill="#0b1628" stroke="#334155"/>
    <text x="1118" y="496" text-anchor="middle" fill="#93c5fd" font-size="17" font-weight="800">External Services</text>
    <rect x="975" y="535" width="130" height="72" rx="14" fill="#0f213d" stroke="#1e3a8a"/>
    <text x="1040" y="564" text-anchor="middle" fill="#f8fafc" font-size="15" font-weight="800">Groq</text>
    <text x="1040" y="587" text-anchor="middle" fill="#94a3b8" font-size="12">LLM + vision</text>
    <rect x="1130" y="535" width="130" height="72" rx="14" fill="#0f213d" stroke="#1e3a8a"/>
    <text x="1195" y="564" text-anchor="middle" fill="#f8fafc" font-size="15" font-weight="800">SMTP</text>
    <text x="1195" y="587" text-anchor="middle" fill="#94a3b8" font-size="12">Recovery email</text>
    <rect x="975" y="650" width="130" height="72" rx="14" fill="#0f213d" stroke="#1e3a8a"/>
    <text x="1040" y="679" text-anchor="middle" fill="#f8fafc" font-size="15" font-weight="800">Amazon API</text>
    <text x="1040" y="702" text-anchor="middle" fill="#94a3b8" font-size="12">RapidAPI</text>
    <rect x="1130" y="650" width="130" height="72" rx="14" fill="#0f213d" stroke="#1e3a8a"/>
    <text x="1195" y="679" text-anchor="middle" fill="#f8fafc" font-size="15" font-weight="800">Walmart API</text>
    <text x="1195" y="702" text-anchor="middle" fill="#94a3b8" font-size="12">OpenWebNinja</text>
    <rect x="1052" y="750" width="130" height="72" rx="14" fill="#0f213d" stroke="#1e3a8a"/>
    <text x="1117" y="779" text-anchor="middle" fill="#f8fafc" font-size="15" font-weight="800">DistilBERT</text>
    <text x="1117" y="802" text-anchor="middle" fill="#94a3b8" font-size="12">Sentiment score</text>
  </g>

  <g stroke="#60a5fa" stroke-width="3" fill="none" marker-end="url(#arrow)">
    <path d="M315 341 H475"/>
    <path d="M315 486 H475"/>
    <path d="M815 281 H935"/>
    <path d="M625 404 H665"/>
    <path d="M625 544 H665"/>
    <path d="M645 588 V645"/>
    <path d="M770 691 C860 691 860 332 935 332"/>
    <path d="M770 691 H975"/>
    <path d="M770 691 C875 691 875 571 975 571"/>
    <path d="M770 691 C890 691 890 786 1052 786"/>
    <path d="M625 404 C875 404 875 571 975 571"/>
    <path d="M550 448 V500"/>
  </g>

  <g font-family="Inter, Arial, sans-serif">
    <rect x="430" y="870" width="430" height="48" rx="24" fill="#0b1628" stroke="#334155"/>
    <text x="645" y="901" text-anchor="middle" fill="#94a3b8" font-size="14">Architecture style: layered Flask monolith</text>
  </g>
</svg>
